<svg id="visual" viewBox="0 0 675 900" width="675" height="900" xmlns="http://www.w3.org/2000/svg" xmlns:xlink="http://www.w3.org/1999/xlink" version="1.1"><rect x="0" y="0" width="675" height="900" fill="#0e141b"></rect><defs><linearGradient id="grad1_0" x1="0%" y1="100%" x2="100%" y2="0%"><stop offset="30%" stop-color="#0e141b" stop-opacity="1"></stop><stop offset="70%" stop-color="#0e141b" stop-opacity="1"></stop></linearGradient></defs><defs><linearGradient id="grad2_0" x1="0%" y1="100%" x2="100%" y2="0%"><stop offset="30%" stop-color="#0e141b" stop-opacity="1"></stop><stop offset="70%" stop-color="#0e141b" stop-opacity="1"></stop></linearGradient></defs><g transform="translate(675, 900)"><path d="M-478.1 0C-471.2 -41.7 -464.3 -83.3 -440.5 -118C-416.7 -152.7 -376 -180.5 -337.7 -195C-299.5 -209.5 -263.7 -210.7 -253.9 -253.9C-244 -297 -260 -382 -239.1 -414.1C-218.2 -446.1 -160.4 -425.1 -114.4 -426.9C-68.4 -428.8 -34.2 -453.5 0 -478.1L0 0Z" fill="#051d38"></path></g><g transform="translate(0, 0)"><path d="M478.1 0C487.1 49.3 496.2 98.6 460.7 123.5C425.3 148.3 345.5 148.7 327.4 189C309.3 229.3 352.9 309.7 338.1 338.1C323.3 366.5 250 343 207 358.5C164 374 151.4 428.5 121.9 455C92.5 481.4 46.2 479.8 0 478.1L0 0Z" fill="#051d38"></path></g></svg>