<svg id="visual" viewBox="0 0 960 540" width="960" height="540" xmlns="http://www.w3.org/2000/svg" xmlns:xlink="http://www.w3.org/1999/xlink" version="1.1"><rect x="0" y="0" width="960" height="540" fill="#0e141b"></rect><g transform="translate(470.695570069015 251.94620556398885)"><path d="M122.6 -140.7C151.9 -121.6 163.6 -76.3 179.2 -25.9C194.8 24.4 214.3 79.7 192.8 106C171.3 132.3 108.7 129.6 55.9 145.1C3.1 160.7 -40 194.5 -84.1 194.4C-128.2 194.2 -173.2 160.1 -182 118.1C-190.8 76 -163.3 26 -151.7 -24.5C-140.1 -75 -144.3 -126 -121.6 -146.1C-99 -166.3 -49.5 -155.7 -1.4 -154C46.7 -152.3 93.4 -159.7 122.6 -140.7" fill="none" stroke="#051d38" stroke-width="6"></path></g></svg>