<svg id="visual" viewBox="0 0 960 540" width="960" height="540" xmlns="http://www.w3.org/2000/svg" xmlns:xlink="http://www.w3.org/1999/xlink" version="1.1"><rect x="0" y="0" width="960" height="540" fill="#0e141b"></rect><defs><linearGradient id="grad1_0" x1="43.8%" y1="100%" x2="100%" y2="0%"><stop offset="14.444444444444446%" stop-color="#0e141b" stop-opacity="1"></stop><stop offset="85.55555555555554%" stop-color="#0e141b" stop-opacity="1"></stop></linearGradient></defs><defs><linearGradient id="grad2_0" x1="0%" y1="100%" x2="56.3%" y2="0%"><stop offset="14.444444444444446%" stop-color="#0e141b" stop-opacity="1"></stop><stop offset="85.55555555555554%" stop-color="#0e141b" stop-opacity="1"></stop></linearGradient></defs><g transform="translate(960, 540)"><path d="M-459 0C-457.5 -43.6 -455.9 -87.3 -426 -114.1C-396 -141 -337.7 -151.1 -320.4 -185C-303.2 -218.9 -327.1 -276.6 -318.9 -318.9C-310.7 -361.2 -270.3 -388 -229.5 -397.5C-188.7 -407 -147.3 -399.3 -109 -406.7C-70.6 -414 -35.3 -436.5 0 -459L0 0Z" fill="#051d38"></path></g><g transform="translate(0, 0)"><path d="M459 0C432.5 31.8 406 63.7 404.7 108.4C403.5 153.2 427.4 210.9 397.5 229.5C367.6 248.1 283.8 227.5 249.6 249.6C215.5 271.8 231 336.7 216.5 375C202 413.3 157.6 425.1 116.5 434.7C75.4 444.2 37.7 451.6 0 459L0 0Z" fill="#051d38"></path></g></svg>