<svg id="visual" viewBox="0 0 675 900" width="675" height="900" xmlns="http://www.w3.org/2000/svg" xmlns:xlink="http://www.w3.org/1999/xlink" version="1.1"><rect x="0" y="0" width="675" height="900" fill="#0e141b"></rect><g transform="translate(362.18938359562554 465.3667546454022)"><path d="M94.6 -114.4C135 -78.9 188.6 -60.8 196 -32.6C203.4 -4.3 164.5 34.1 137.9 79.1C111.3 124.1 97 175.8 68.1 185.6C39.2 195.5 -4.3 163.5 -66.8 153.7C-129.3 144 -210.8 156.4 -236.5 128.5C-262.2 100.6 -232 32.5 -207.2 -24.1C-182.4 -80.7 -162.9 -125.8 -129.2 -162.5C-95.6 -199.2 -47.8 -227.6 -10.3 -215.3C27.1 -203 54.2 -150 94.6 -114.4" fill="#051d38"></path></g></svg>