<svg id="visual" viewBox="0 0 960 540" width="960" height="540" xmlns="http://www.w3.org/2000/svg" xmlns:xlink="http://www.w3.org/1999/xlink" version="1.1"><rect x="0" y="0" width="960" height="540" fill="#0e141b"></rect><g transform="translate(420.12141624776575 250.65732879291573)"><path d="M100.4 -108C141.3 -85.4 193.3 -64.3 217.3 -24.1C241.4 16.2 237.6 75.6 209 116.3C180.3 157 126.7 179.1 74.5 193.1C22.2 207 -28.7 213 -57.7 189.1C-86.6 165.3 -93.5 111.6 -96.9 72.2C-100.2 32.8 -100 7.6 -105.2 -28.2C-110.4 -64.1 -121.1 -110.6 -104.5 -137.5C-87.8 -164.4 -43.9 -171.7 -7.1 -163.3C29.8 -154.8 59.6 -130.7 100.4 -108" fill="#051d38"></path></g></svg>