<svg id="visual" viewBox="0 0 675 900" width="675" height="900" xmlns="http://www.w3.org/2000/svg" xmlns:xlink="http://www.w3.org/1999/xlink" version="1.1"><rect x="0" y="0" width="675" height="900" fill="#0e141b"></rect><g transform="translate(364.02509569016564 467.1276960735378)"><path d="M172.3 -226.2C200 -182.1 183.1 -105.7 173.4 -47.4C163.6 11 161.1 51.2 147 93.7C133 136.2 107.6 180.9 64.7 210.7C21.9 240.6 -38.3 255.6 -85.6 237.4C-132.9 219.3 -167.4 167.9 -194.3 115.1C-221.2 62.4 -240.6 8.3 -240.5 -51.1C-240.4 -110.5 -220.8 -175.1 -177.5 -216.5C-134.1 -257.8 -67.1 -275.9 2.6 -279.1C72.3 -282.2 144.6 -270.4 172.3 -226.2" fill="none" stroke="#051d38" stroke-width="6"></path></g></svg>