<svg id="visual" viewBox="0 0 960 540" width="960" height="540" xmlns="http://www.w3.org/2000/svg" xmlns:xlink="http://www.w3.org/1999/xlink" version="1.1"><rect x="0" y="0" width="960" height="540" fill="#0e141b"></rect><defs><linearGradient id="grad1_0" x1="43.8%" y1="0%" x2="100%" y2="100%"><stop offset="14.444444444444446%" stop-color="#0e141b" stop-opacity="1"></stop><stop offset="85.55555555555554%" stop-color="#0e141b" stop-opacity="1"></stop></linearGradient></defs><defs><linearGradient id="grad2_0" x1="0%" y1="0%" x2="56.3%" y2="100%"><stop offset="14.444444444444446%" stop-color="#0e141b" stop-opacity="1"></stop><stop offset="85.55555555555554%" stop-color="#051d38" stop-opacity="1"></stop></linearGradient></defs><g transform="translate(960, 0)"><path d="M0 432C-33.7 394.3 -67.4 356.7 -113.7 350C-160 343.3 -219 367.6 -253.9 349.5C-288.9 331.4 -299.9 270.9 -309.9 225.1C-319.8 179.4 -328.8 148.5 -349 113.4C-369.2 78.4 -400.6 39.2 -432 0L0 0Z" fill="#051d38"></path></g><g transform="translate(0, 540)"><path d="M0 -432C30.4 -384.5 60.8 -336.9 107.8 -331.9C154.9 -326.9 218.7 -364.4 253.9 -349.5C289.1 -334.6 295.8 -267.4 301.8 -219.2C307.8 -171.1 313.2 -142.1 334.8 -108.8C356.4 -75.4 394.2 -37.7 432 0L0 0Z" fill="#051d38"></path></g></svg>