<svg id="visual" viewBox="0 0 675 900" width="675" height="900" xmlns="http://www.w3.org/2000/svg" xmlns:xlink="http://www.w3.org/1999/xlink" version="1.1"><rect x="0" y="0" width="675" height="900" fill="#0e141b"></rect><defs><linearGradient id="grad1_0" x1="0%" y1="0%" x2="100%" y2="100%"><stop offset="30%" stop-color="#0e141b" stop-opacity="1"></stop><stop offset="70%" stop-color="#0e141b" stop-opacity="1"></stop></linearGradient></defs><defs><linearGradient id="grad2_0" x1="0%" y1="0%" x2="100%" y2="100%"><stop offset="30%" stop-color="#0e141b" stop-opacity="1"></stop><stop offset="70%" stop-color="#0e141b" stop-opacity="1"></stop></linearGradient></defs><g transform="translate(675, 0)"><path d="M0 450C-43.6 441.8 -87.1 433.7 -138.1 425.1C-189.1 416.6 -247.5 407.6 -264.5 364.1C-281.5 320.5 -257.1 242.4 -277.5 201.6C-297.9 160.8 -363.2 157.2 -399.4 129.8C-435.7 102.4 -442.8 51.2 -450 0L0 0Z" fill="#051d38"></path></g><g transform="translate(0, 900)"><path d="M0 -450C51.5 -452.6 103 -455.3 139.1 -428C175.1 -400.7 195.7 -343.4 223.9 -308.2C252.2 -273.1 288.2 -260 325.2 -236.3C362.3 -212.5 400.3 -178.1 421.3 -136.9C442.3 -95.7 446.1 -47.9 450 0L0 0Z" fill="#051d38"></path></g></svg>